<?xml version="1.0" encoding="UTF-8" standalone="no"?>
<!-- Generator: Adobe Illustrator 13.0.0, SVG Export Plug-In . SVG Version: 6.00 Build 14948)  -->

<svg
   xmlns:dc="http://purl.org/dc/elements/1.1/"
   xmlns:cc="http://creativecommons.org/ns#"
   xmlns:rdf="http://www.w3.org/1999/02/22-rdf-syntax-ns#"
   xmlns:svg="http://www.w3.org/2000/svg"
   xmlns="http://www.w3.org/2000/svg"
   xmlns:xlink="http://www.w3.org/1999/xlink"
   xmlns:sodipodi="http://sodipodi.sourceforge.net/DTD/sodipodi-0.dtd"
   xmlns:inkscape="http://www.inkscape.org/namespaces/inkscape"
   version="1.1"
   id="Layer_1"
   x="0px"
   y="0px"
   width="284.239px"
   height="284.497px"
   viewBox="0 0 284.239 284.497"
   enable-background="new 0 0 284.239 284.497"
   xml:space="preserve"
   inkscape:version="0.91 r13725"
   sodipodi:docname="nsf-logo-white.svg"><metadata
     id="metadata54"><rdf:RDF><cc:Work
         rdf:about=""><dc:format>image/svg+xml</dc:format><dc:type
           rdf:resource="http://purl.org/dc/dcmitype/StillImage" /><dc:title></dc:title></cc:Work></rdf:RDF></metadata><defs
     id="defs52" /><sodipodi:namedview
     pagecolor="#ffffff"
     bordercolor="#666666"
     borderopacity="1"
     objecttolerance="10"
     gridtolerance="10"
     guidetolerance="10"
     inkscape:pageopacity="0"
     inkscape:pageshadow="2"
     inkscape:window-width="1292"
     inkscape:window-height="774"
     id="namedview50"
     showgrid="false"
     inkscape:zoom="1.6590684"
     inkscape:cx="142.11951"
     inkscape:cy="142.2485"
     inkscape:window-x="71"
     inkscape:window-y="0"
     inkscape:window-maximized="0"
     inkscape:current-layer="Layer_1" /><radialGradient
     id="SVGID_1_"
     cx="44.9893"
     cy="45.7388"
     r="294.4988"
     gradientUnits="userSpaceOnUse"><stop
       offset="0"
       style="stop-color:#E8E57B"
       id="stop4" /><stop
       offset="1"
       style="stop-color:#C49338"
       id="stop6" /></radialGradient><path
     style="fill:#ffffff"
     d="M 138.82422 0 C 139.39822 10.628 136.01884 21.583797 125.96484 26.466797 C 116.19784 30.488797 106.14334 33.649328 94.652344 33.361328 C 85.748344 33.361328 78.146 25.037359 74.125 17.568359 C 72.09 18.425359 67.591797 21.744141 67.591797 21.744141 C 69.315797 24.329141 71.673156 27.9035 72.535156 31.0625 C 76.844156 42.8405 69.08825 52.6065 61.90625 60.9375 C 53.28925 70.1295 41.799156 79.321281 29.160156 73.863281 C 26.287156 73.001281 23.352969 71.340859 20.542969 70.130859 C 19.393969 72.140859 17.88825 74.552312 17.03125 76.695312 C 24.10025 80.016312 33.467859 87.940812 33.755859 97.132812 C 32.893859 106.89881 30.596109 116.37714 26.287109 124.99414 C 21.691109 135.33514 10.628 139.21864 0 138.93164 C 0 141.60864 -0.000578125 143.74984 0.10742188 146.21484 C 9.2994219 145.92784 18.819344 147.97547 24.277344 155.73047 C 29.448344 166.93347 33.756531 178.71289 32.894531 192.21289 C 32.319531 200.54389 25.138031 207.43787 17.957031 211.17188 C 17.096031 211.74587 17.709094 212.37522 17.996094 212.94922 C 19.676094 215.93022 20.461359 217.34137 21.318359 217.23438 C 28.212359 212.06337 40.07525 210.02119 48.40625 214.61719 C 58.17225 220.65019 66.790266 229.55537 72.822266 239.60938 C 76.269266 247.07837 74.840375 255.81723 70.484375 262.86523 C 69.655375 264.20623 69.305453 265.11589 70.814453 265.96289 C 71.986453 266.61989 73.441875 267.49987 74.546875 268.04688 C 75.517875 269.07887 77.132359 265.17333 78.568359 263.73633 C 83.164359 256.84233 90.344891 251.67394 98.962891 251.96094 C 109.30389 252.53494 119.35856 255.12091 127.97656 260.00391 C 136.30656 265.46191 138.60341 274.93992 138.31641 284.41992 C 140.61441 284.41992 143.42969 284.61048 145.67969 284.39648 C 145.39269 274.62948 148.08395 265.17558 156.12695 259.14258 C 166.18095 254.54658 177.09516 250.52561 189.16016 251.09961 C 198.63916 250.81261 206.10791 258.56833 210.12891 266.61133 C 212.41391 265.22333 214.23522 264.15284 216.44922 262.58984 C 215.01322 260.00484 213.86384 257.41987 212.71484 254.54688 C 209.84284 245.92988 211.85394 235.87469 218.46094 229.55469 C 225.92894 221.22469 234.54583 212.31959 245.17383 210.30859 C 252.35483 209.73459 257.81359 212.89558 263.55859 215.76758 C 265.28259 213.75658 266.71808 211.17105 267.58008 208.87305 C 264.13308 206.28805 260.11028 204.27708 257.23828 200.83008 C 246.60928 188.76508 254.07978 170.66741 258.67578 158.31641 C 263.27178 148.26241 274.18723 145.96484 284.24023 145.96484 C 284.18223 143.42984 284.18212 141.18109 283.95312 138.49609 C 274.18712 139.35809 264.70711 136.48408 259.53711 127.58008 C 254.36611 116.95108 250.91936 104.88694 252.06836 91.960938 C 252.93036 84.204937 260.68597 77.885391 267.29297 74.150391 C 266.18597 72.089391 264.9947 70.130031 263.8457 67.832031 C 260.9377 69.198031 258.10034 71.279625 254.65234 72.140625 C 237.99234 78.460625 225.92811 62.087766 216.16211 50.884766 C 210.70411 44.564766 210.12906 34.510859 213.28906 26.755859 C 214.43806 24.744859 215.52033 22.709437 216.73633 20.148438 C 214.72533 18.711438 212.41391 17.460172 210.12891 16.701172 C 208.11791 20.435172 205.81927 24.169859 202.94727 26.755859 C 189.44627 38.245859 169.62511 30.489922 156.41211 24.169922 C 148.36911 18.424922 146.35948 9.5180625 146.64648 0.0390625 C 144.06848 -0.0009375 140.96822 7.1054274e-15 138.82422 0 z M 126.25977 33.720703 C 127.68705 33.666844 129.1243 33.720047 130.56055 33.935547 L 132.2832 35.371094 C 134.8682 38.244094 134.0077 42.840219 133.7207 46.574219 C 131.4227 56.628219 129.69767 66.681047 125.38867 75.873047 L 123.37891 75.587891 C 115.04791 67.831891 103.84567 59.214047 98.388672 48.873047 C 97.526672 47.724047 97.526672 45.426344 98.388672 44.277344 C 102.69667 39.968344 108.15344 37.669203 113.89844 35.658203 C 117.77669 35.012453 121.97792 33.882281 126.25977 33.720703 z M 160.91211 34.207031 C 163.63298 34.177906 166.43317 34.538328 168.76367 34.798828 C 175.10267 35.505828 180.77005 37.759187 185.99805 41.117188 C 188.52405 42.740188 187.14844 45.426953 187.14844 46.001953 C 182.55244 56.342953 173.64641 64.384844 165.31641 72.714844 C 163.59241 73.863844 162.44459 76.736891 160.43359 75.587891 C 156.41259 65.820891 153.53941 55.479563 151.81641 44.851562 C 151.52841 41.691562 151.24106 38.245266 153.53906 35.947266 C 155.55006 34.654266 158.19123 34.236156 160.91211 34.207031 z M 142.54492 52.78125 C 145.37999 52.616094 146.06953 57.455219 148.08203 59.214844 C 150.37903 64.385844 152.96623 69.268453 154.11523 74.439453 C 150.66823 74.726453 146.07211 74.438391 142.91211 74.150391 L 131.70898 75.013672 C 134.00698 67.257672 137.1665 60.075641 141.1875 53.181641 C 141.69012 52.930266 142.13991 52.804844 142.54492 52.78125 z M 206.90039 54.560547 C 207.39864 54.582953 207.90155 54.689047 208.4043 54.904297 C 213.2873 57.202297 217.59725 60.937875 221.90625 64.671875 C 225.64025 68.405875 229.37455 72.715828 230.81055 78.173828 C 229.37455 83.918828 222.76788 85.067125 218.17188 87.078125 C 209.84188 89.663125 200.93625 92.534594 192.03125 93.683594 C 190.30825 91.098594 192.31747 87.939516 192.60547 85.353516 C 195.19047 75.299516 196.91516 64.959688 202.66016 56.054688 C 203.95241 55.192938 205.40564 54.493328 206.90039 54.560547 z M 78.279297 55.480469 C 82.875297 55.193469 84.599156 60.650547 86.035156 63.810547 C 89.482156 73.290547 92.354125 83.055484 94.078125 93.396484 C 92.354125 95.982484 88.907266 93.971594 86.322266 93.683594 C 77.417266 91.673594 68.513594 89.663797 60.183594 86.216797 C 58.172594 85.067797 55.586719 83.630031 55.011719 81.332031 C 55.011719 75.874031 59.320469 71.279703 62.480469 66.970703 C 66.789469 62.087703 72.247297 57.203469 78.279297 55.480469 z M 186.46875 63.59375 C 186.87503 63.598779 187.29166 63.666922 187.72266 63.810547 L 188.29883 64.671875 C 188.87283 72.427875 188.87222 81.619781 186.57422 88.800781 C 182.55322 87.077781 178.53077 83.917141 174.50977 81.619141 C 171.92477 80.470141 169.05191 79.609828 166.75391 78.173828 C 170.19991 74.151828 174.50936 71.279031 178.81836 67.832031 C 181.33136 66.575531 183.62481 63.558545 186.46875 63.59375 z M 98.068359 64.462891 C 99.357336 64.490549 100.73853 65.910109 102.12109 66.107422 C 107.86609 69.267422 113.61014 73.002828 118.49414 78.173828 L 118.49414 78.746094 C 111.60014 81.619094 104.99489 85.353109 98.962891 89.662109 C 96.664891 82.193109 95.801953 73.576203 96.376953 65.533203 C 96.915391 64.725078 97.482461 64.450319 98.068359 64.462891 z M 142.11914 84.685547 A 57.562424 57.562424 0 0 1 199.68164 142.24805 A 57.562424 57.562424 0 0 1 142.11914 199.81055 A 57.562424 57.562424 0 0 1 84.556641 142.24805 A 57.562424 57.562424 0 0 1 142.11914 84.685547 z M 215.52344 95.757812 C 217.11225 95.766813 218.67364 95.838672 220.18164 95.982422 L 221.33203 97.130859 C 219.03403 104.59886 213.28992 110.91917 207.54492 116.95117 L 206.9707 116.66406 C 203.8107 110.63106 200.65069 104.59852 196.05469 98.853516 C 196.91669 97.130516 199.50161 97.991859 201.22461 97.130859 C 205.74861 96.269109 210.757 95.730812 215.52344 95.757812 z M 239.65234 97.177734 C 244.32986 97.500186 245.45995 103.59412 247.4707 106.60938 C 250.3437 114.07838 253.21575 122.98345 250.34375 131.31445 C 244.88575 135.33545 237.41677 132.17545 231.38477 131.31445 C 224.20377 129.30345 217.02291 127.86703 210.12891 124.70703 C 209.26691 124.13203 208.97969 122.9822 209.55469 122.4082 C 217.88469 112.9282 226.50297 103.16297 237.41797 97.417969 C 238.24384 97.202594 238.98413 97.13167 239.65234 97.177734 z M 72.248047 97.417969 C 77.993047 97.417969 84.024312 97.706688 89.195312 99.429688 C 84.886312 105.46169 81.151406 111.49261 78.566406 118.09961 L 77.992188 118.38672 C 72.534187 113.21672 66.790078 106.8978 64.205078 99.716797 C 65.066078 96.556797 69.375047 97.991969 72.248047 97.417969 z M 44.384766 98.853516 C 51.853766 99.141516 56.735359 105.46053 62.193359 109.76953 C 66.789359 114.07853 72.248203 118.3877 75.408203 123.8457 C 75.695203 124.7077 74.545594 125.28036 73.683594 125.56836 C 62.767594 128.15336 52.427391 133.03711 40.650391 133.03711 C 38.352391 133.03711 36.340406 132.17406 35.191406 130.16406 C 33.467406 123.27006 34.904063 115.80242 36.914062 109.48242 C 38.925062 105.74842 39.788766 100.28952 44.384766 98.853516 z M 74.546875 130.45117 L 74.832031 131.31445 C 73.683031 138.49545 74.257812 146.25053 74.257812 153.14453 C 66.502812 151.13353 59.034734 147.9758 52.427734 143.0918 C 52.140734 142.5178 52.140844 141.65508 52.714844 141.08008 C 59.321844 136.19708 66.790875 132.74917 74.546875 130.45117 z M 211.56445 131.02539 C 218.74645 133.32439 226.21309 135.91008 232.24609 141.08008 C 232.53309 144.81508 227.93873 145.10228 225.92773 147.11328 C 221.04473 149.41128 216.44834 151.70842 211.27734 152.85742 C 210.41534 148.54842 211.85234 144.52775 211.27734 140.21875 L 210.70312 131.88867 L 211.56445 131.02539 z M 243.74609 150.4375 C 246.38139 150.36251 248.54902 151.74506 250.05664 154.00781 C 252.35464 164.92281 249.48261 175.83719 244.59961 184.74219 C 243.45061 185.89119 242.01206 186.17969 240.28906 186.17969 C 233.10706 184.74369 227.93836 178.71006 222.19336 173.53906 C 217.88436 169.51706 212.42562 165.21006 209.26562 160.03906 C 209.84063 157.45406 213.00161 157.74091 214.72461 156.87891 C 223.91661 154.29391 232.82089 151.42155 242.58789 150.56055 C 242.98289 150.48867 243.36962 150.44821 243.74609 150.4375 z M 40.570312 150.87109 C 42.275209 150.83743 44.024953 151.02714 45.533203 151.13477 C 55.587203 153.14577 65.354875 155.44352 74.546875 158.60352 C 75.982875 158.89052 76.269203 160.61261 75.408203 161.47461 C 67.651203 170.37961 59.034578 179.8598 49.267578 186.4668 C 47.257578 187.6158 44.096828 188.1908 41.798828 186.4668 C 35.478828 177.2748 32.318859 165.78492 33.755859 154.29492 C 35.012734 151.6018 37.728818 150.92721 40.570312 150.87109 z M 77.992188 166.64648 C 81.151187 173.25348 84.600203 179.57247 88.908203 185.60547 L 87.759766 186.4668 C 80.578766 188.1908 72.534516 189.33856 65.353516 188.47656 C 62.480516 185.31656 67.077453 181.86994 67.939453 178.71094 C 71.386453 174.68894 73.396188 169.51848 77.992188 166.64648 z M 206.96875 166.93359 C 213.28775 171.81659 218.45819 178.71158 221.61719 185.89258 C 221.04319 189.33958 216.44839 187.90256 214.15039 188.47656 C 208.11739 188.18956 202.08484 187.61569 196.33984 186.17969 L 195.76562 185.60547 C 200.36162 179.57247 203.52075 173.25359 206.96875 166.93359 z M 91.78125 190.48828 C 92.93025 190.48828 93.791125 191.06194 94.078125 192.21094 C 92.067125 203.41394 90.056156 214.61603 86.035156 224.95703 C 84.599156 227.54303 82.876688 231.27734 79.429688 231.27734 C 68.800687 228.11734 59.3205 218.35294 54.4375 208.58594 C 54.4375 207.14994 54.437047 205.13728 55.873047 203.98828 C 66.214047 196.23228 79.42925 193.93528 91.78125 190.48828 z M 192.03125 190.77539 C 203.52125 192.49939 214.72445 195.37069 225.06445 199.67969 C 227.07545 200.54169 229.08537 201.97728 230.23438 203.98828 C 231.38338 208.00928 228.51011 210.59686 226.78711 213.75586 C 221.90511 220.36286 215.29908 226.6818 207.83008 229.8418 C 205.81908 230.4158 204.09616 229.55319 202.66016 228.11719 C 196.05316 218.35119 194.32903 206.28698 191.45703 195.08398 C 191.45703 193.64798 190.59525 191.63739 192.03125 190.77539 z M 185.42383 195.6582 C 188.00983 199.1062 188.00998 204.56394 188.58398 208.58594 C 188.58398 212.31994 189.73288 216.34195 188.29688 219.50195 C 187.43488 220.64995 185.99872 219.78895 185.13672 219.50195 C 178.81772 216.34195 172.49706 212.31844 167.03906 207.14844 C 169.33706 204.56244 173.07331 204.27662 175.94531 202.26562 L 185.42383 195.6582 z M 98.675781 195.94531 C 104.99478 199.96631 111.31203 203.70233 118.20703 206.86133 L 118.20703 207.72266 C 112.74903 213.18066 106.71844 217.77761 100.39844 221.22461 C 98.962438 221.79861 97.238281 221.22495 97.238281 219.50195 C 96.089281 211.74595 96.951781 203.41331 98.675781 195.94531 z M 160.75586 209.05078 C 161.22261 209.08666 161.72525 209.30338 162.15625 209.73438 C 171.06125 218.35237 181.97733 226.39555 186.86133 237.31055 C 188.29733 243.05555 181.97619 244.20395 178.24219 246.50195 C 170.77319 249.66195 161.87006 252.82133 153.53906 250.23633 C 149.80506 247.07633 151.52841 241.61955 151.81641 237.31055 C 153.82741 227.83155 155.83727 218.35227 159.57227 209.44727 C 159.85927 209.15977 160.28911 209.01491 160.75586 209.05078 z M 123.87695 209.32031 C 124.95687 209.22177 125.46064 210.41675 125.96289 211.17188 C 129.12289 222.66088 133.71953 233.86284 133.14453 246.21484 C 132.85753 248.22584 131.13427 249.66133 129.69727 250.23633 C 118.78127 251.38533 108.43927 249.08897 99.822266 243.91797 C 98.386266 242.48197 98.386719 240.46909 98.386719 238.74609 C 100.97172 231.56409 107.00578 226.10622 112.17578 220.07422 C 115.90978 216.34022 119.35691 212.60627 123.37891 209.44727 C 123.55841 209.37539 123.72268 209.33439 123.87695 209.32031 z M 131.99609 210.30859 C 138.31509 211.17059 146.07062 211.17059 152.39062 210.30859 C 153.53963 211.17059 152.39062 212.60686 152.39062 213.75586 C 150.09262 219.78886 147.79455 225.81934 144.06055 231.27734 C 143.48555 232.13934 142.05056 231.85134 141.47656 231.27734 C 136.59256 225.24534 133.71998 218.0637 131.70898 210.5957 L 131.99609 210.30859 z "
     id="path8" /><g
     id="g12"><defs
       id="defs14"><circle
         id="SVGID_2_"
         cx="142.335"
         cy="142.519"
         r="63.986" /></defs><clipPath
       id="SVGID_3_"><use
         xlink:href="#SVGID_2_"
         overflow="visible"
         id="use18" /></clipPath></g><g
     id="g42"
     style="fill:#ffffff"><path
       fill="#FFFFFF"
       d="M89.252,159.32c3.448-0.402,5.057-0.804,5.057-4.597v-27.237c-3.218-3.965-4.137-4.137-4.884-4.137v-1.437   h12.124l19.94,24.537h0.115v-17.411c0-3.448-0.69-5.344-5.344-5.689v-1.437h12.354v1.437c-4.138,0.517-4.482,1.839-4.482,4.597   v33.846h-1.609l-25.571-31.144h-0.114v22.985c0,4.137,1.207,5.229,5.458,5.688v1.437H89.252V159.32z"
       id="path44"
       style="fill:#ffffff" /><path
       fill="#FFFFFF"
       d="M156.015,133.462c-1.034-4.022-4.482-10.63-11.263-10.63c-2.987,0-6.148,1.724-6.148,5.458   c0,3.103,1.092,4.368,5.919,6.781l8.447,4.194c1.954,0.978,6.321,4.31,6.321,10.574c0,5.056-3.678,12.009-14.25,12.009   c-5.459,0-8.045-1.954-9.826-1.954c-1.207,0-1.494,1.035-1.724,1.954h-1.666v-14.194h1.666c1.15,5.805,4.482,12.298,11.779,12.298   c6.896,0,7.184-5.689,7.184-6.436c0-3.851-2.701-5.229-6.436-7.011l-3.85-1.838c-9.826-4.711-9.826-9.654-9.826-12.297   c0-3.505,1.782-11.319,12.699-11.319c4.597,0,7.297,1.896,8.964,1.896c1.321,0,1.608-0.862,1.896-1.953h1.725v12.469H156.015z"
       id="path46"
       style="fill:#ffffff" /><path
       fill="#FFFFFF"
       d="M162.671,121.912h32.581v11.55h-1.379c-1.264-5.976-2.815-9.596-12.699-9.596   c-3.103,0-4.137,0.23-4.137,2.702v13.331c7.125,0.114,7.987-3.965,8.792-8.562h1.436v19.421h-1.436   c-0.632-4.711-1.551-8.906-8.792-8.906v13.389c0,3.792,2.299,3.908,6.32,4.08v1.437h-20.686v-1.437   c3.275-0.344,5.057-0.516,5.057-4.08v-27.812c0-3.792-2.356-3.907-5.057-4.08V121.912z"
       id="path48"
       style="fill:#ffffff" /></g></svg>