<?xml version="1.0" encoding="utf-8"?>
<!-- Generator: Adobe Illustrator 15.1.0, SVG Export Plug-In . SVG Version: 6.00 Build 0)  -->
<!DOCTYPE svg PUBLIC "-//W3C//DTD SVG 1.1//EN" "http://www.w3.org/Graphics/SVG/1.1/DTD/svg11.dtd">
<svg version="1.1" id="Layer_1" xmlns="http://www.w3.org/2000/svg" xmlns:xlink="http://www.w3.org/1999/xlink" x="0px" y="0px"
	 width="100px" height="100px" viewBox="0 0 100 100" enable-background="new 0 0 100 100" xml:space="preserve">
<g id="Captions">
</g>
<g id="Your_Icon">
	<g>
		<path fill="#FFFFFF" stroke="#FFFFFF" stroke-miterlimit="10" d="M82,19H71h-4.583l-3.108-7.461l0,0
			c-0.728-1.71-1.951-2.996-3.367-3.951C58.516,6.649,56.857,6.013,55,6H43c-1.873,0.012-3.54,0.671-4.947,1.647
			c-1.398,0.99-2.588,2.331-3.239,4.087l-2.633,7.241L32.25,19H28H17c-2.209,0-4,1.791-4,4s1.791,4,4,4h4v61
			c-0.001,1.927,0.794,3.691,2.054,4.945C24.309,94.206,26.074,95.001,28,95h43c1.927,0.001,3.691-0.794,4.945-2.055
			C77.206,91.691,78.001,89.926,78,88V27h4c2.209,0,4-1.791,4-4S84.209,19,82,19z M40.452,13.785c0.1-0.312,0.494-0.85,1.042-1.223
			C42.032,12.174,42.673,11.988,43,12h12c0.342-0.013,1.029,0.181,1.611,0.581c0.594,0.384,1.037,0.945,1.156,1.265l0,0L59.916,19
			h-21.36L40.452,13.785z M72,88c-0.001,0.273-0.105,0.509-0.296,0.704C71.509,88.895,71.273,88.999,71,89H28
			c-0.273-0.001-0.509-0.105-0.704-0.296C27.105,88.509,27.001,88.273,27,88V27h45V88z"/>
		<path fill="#FFFFFF" stroke="#FFFFFF" stroke-miterlimit="10" d="M36,82c1.657,0,3-1.343,3-3V36c0-1.657-1.343-3-3-3s-3,1.343-3,3
			v43C33,80.657,34.343,82,36,82z"/>
		<path fill="#FFFFFF" stroke="#FFFFFF" stroke-miterlimit="10" d="M62,82c1.657,0,3-1.343,3-3V36c0-1.657-1.343-3-3-3s-3,1.343-3,3
			v43C59,80.657,60.343,82,62,82z"/>
		<path fill="#FFFFFF" stroke="#FFFFFF" stroke-miterlimit="10" d="M49,82c1.657,0,3-1.343,3-3V36c0-1.657-1.343-3-3-3s-3,1.343-3,3
			v43C46,80.657,47.343,82,49,82z"/>
	</g>
</g>
</svg>
