<?xml version="1.0" encoding="UTF-8" standalone="no"?>
<svg
   xmlns:dc="http://purl.org/dc/elements/1.1/"
   xmlns:cc="http://creativecommons.org/ns#"
   xmlns:rdf="http://www.w3.org/1999/02/22-rdf-syntax-ns#"
   xmlns:svg="http://www.w3.org/2000/svg"
   xmlns="http://www.w3.org/2000/svg"
   xmlns:sodipodi="http://sodipodi.sourceforge.net/DTD/sodipodi-0.dtd"
   xmlns:inkscape="http://www.inkscape.org/namespaces/inkscape"
   version="1.1"
   id="Layer_1"
   x="0px"
   y="0px"
   width="100px"
   height="100px"
   viewBox="0 0 100 100"
   enable-background="new 0 0 100 100"
   xml:space="preserve"
   inkscape:version="0.48.2 r9819"
   sodipodi:docname="dragonfly.svg"><metadata
   id="metadata23"><rdf:RDF><cc:Work
       rdf:about=""><dc:format>image/svg+xml</dc:format><dc:type
         rdf:resource="http://purl.org/dc/dcmitype/StillImage" /><dc:title></dc:title></cc:Work></rdf:RDF></metadata><defs
   id="defs21">
	
	
	
	
</defs><sodipodi:namedview
   pagecolor="#ffffff"
   bordercolor="#666666"
   borderopacity="1"
   objecttolerance="10"
   gridtolerance="10"
   guidetolerance="10"
   inkscape:pageopacity="0"
   inkscape:pageshadow="2"
   inkscape:window-width="1322"
   inkscape:window-height="727"
   id="namedview19"
   showgrid="false"
   inkscape:zoom="2.36"
   inkscape:cx="-25"
   inkscape:cy="50"
   inkscape:window-x="170"
   inkscape:window-y="90"
   inkscape:window-maximized="0"
   inkscape:current-layer="Layer_1" />
<g
   id="g3">
	<path
   fill="#000000"
   d="M238.149,92.25c-0.635,0-0.995-0.268-1.187-0.492c-0.407-0.48-0.375-1.127-0.351-1.34   c-0.178-2.926-3.446-55.647-3.449-57.567c-0.002-0.971,0.531-2.322,1.302-3.093c1.119-1.121,2.638-2.277,3.685-2.277   c0.886,0,2.229,1.048,3.225,1.789c1.218,0.905,1.761,2.455,1.76,3.581c-0.002,1.302-3.271,54.62-3.448,57.567   c0.024,0.213,0.057,0.859-0.352,1.34C239.144,91.982,238.783,92.25,238.149,92.25z"
   id="path5" />
</g>
<g
   id="g5591"
   transform="matrix(-1,0,0,-1,100.1232,98.885801)"
   inkscape:export-filename="/Users/msh801/github/ComputerMuseum/images/dragonfly.png"
   inkscape:export-xdpi="24.35"
   inkscape:export-ydpi="24.35"><g
     transform="matrix(1,0,0,-1,0,99.500383)"
     inkscape:export-ydpi="49.080002"
     inkscape:export-xdpi="49.080002"
     inkscape:export-filename="/Users/msh801/github/ComputerMuseum/images/dragonfly.png"
     style="fill:#000000;fill-opacity:1"
     id="g9">
		<path
   d="m 52.419,91.021 c -0.005,0 -0.012,0 -0.019,0 -0.056,0 -0.107,-0.01 -0.16,-0.027 -0.009,-0.002 -0.924,-0.304 -2.248,-0.304 -1.326,0 -2.243,0.302 -2.251,0.304 -0.172,0.059 -0.356,0.021 -0.49,-0.098 -0.134,-0.119 -0.195,-0.298 -0.16,-0.474 0.082,-0.406 0.859,-3.972 2.899,-3.972 1.785,0 2.668,3.058 2.864,3.823 0.041,0.072 0.064,0.158 0.064,0.248 10e-4,0.277 -0.222,0.5 -0.499,0.5 z"
   id="path11"
   inkscape:connector-curvature="0"
   style="fill:#000000;fill-opacity:1" />
	</g><path
     inkscape:export-ydpi="49.080002"
     inkscape:export-xdpi="49.080002"
     inkscape:export-filename="/Users/msh801/github/ComputerMuseum/images/dragonfly.png"
     d="m 87.253,90.521383 c -0.895,0 -1.873,-0.116 -2.991,-0.355 l -32.093,-7.031 c -0.849,-0.186 -1.532,-0.305 -2.169,-0.37 -0.636,0.065 -1.321,0.184 -2.17,0.37 l -32.092,7.031 c -1.118,0.239 -2.097,0.355 -2.991,0.355 -5.1,0 -6.778,-4.022 -8.44,-9.281 -0.033,-0.101 -0.032,-0.21 0.003,-0.31 1.054,-3.104 1.884,-4.921 2.865,-6.271 0.095,-0.129 0.245,-0.205 0.404,-0.205 0.007,0 0.015,0 0.021,0 0.167,0.007 0.32,0.098 0.406,0.241 1.253,2.077 3.451,3.199 6.912,3.53 l 32.323,3.201 c 0.005,-0.005 0.009,-0.012 0.014,-0.017 0.078,-0.061 0.1,-0.216 0.039,-0.294 -0.007,-0.009 -0.008,-0.02 -0.013,-0.028 l -32.249,-5.526 c -3.614,-0.646 -5.676,-1.983 -6.688,-4.336 -0.654,-1.522 -0.875,-3.48 -0.719,-6.352 0.025,-0.426 0.057,-0.867 0.095,-1.322 0.009,-0.105 0.05,-0.206 0.12,-0.287 3.352,-3.863 5.905,-6.05 9.036,-5.795 1.51,0.123 3.146,0.826 5.004,2.15 l 26.556,19.133 c 0.693,0.499 1.081,0.651 1.491,0.698 0.468,-0.047 0.946,-0.2 1.639,-0.698 l 26.553,-19.132 c 1.859,-1.324 3.495,-2.027 5.005,-2.15 3.132,-0.254 5.684,1.932 9.035,5.795 0.07,0.081 0.111,0.181 0.122,0.287 0.036,0.455 0.067,0.896 0.093,1.322 0.158,2.872 -0.064,4.83 -0.718,6.352 -1.014,2.353 -3.075,3.69 -6.688,4.336 l -32.248,5.525 c -0.006,0.009 -0.008,0.02 -0.014,0.028 -0.061,0.079 -0.039,0.234 0.039,0.294 0.006,0.004 0.008,0.012 0.014,0.017 l 32.323,-3.201 c 3.46,-0.331 5.658,-1.453 6.912,-3.53 0.085,-0.144 0.24,-0.234 0.405,-0.241 0.008,0 0.016,0 0.021,0 0.16,0 0.311,0.076 0.404,0.205 0.981,1.35 1.812,3.166 2.865,6.271 0.033,0.1 0.036,0.209 0.003,0.311 -1.661,5.258 -3.339,9.28 -8.439,9.28 z"
     id="path13"
     inkscape:connector-curvature="0"
     style="fill:#ffffff;stroke:#000000" /><path
     inkscape:export-ydpi="49.080002"
     inkscape:export-xdpi="49.080002"
     inkscape:export-filename="/Users/msh801/github/ComputerMuseum/images/dragonfly.png"
     d="m 45.568,74.285383 3.405,-58.613 c 0,0 -0.213,-1.298 1.021,-1.298 1.235,0 1.021,1.298 1.021,1.298 l 3.405,58.613 c 0,0 -2.962,3.817 -4.426,3.817 -1.464,0 -4.426,-3.817 -4.426,-3.817 z"
     id="path15"
     inkscape:connector-curvature="0"
     style="fill:#000000" /><path
     inkscape:export-ydpi="49.080002"
     inkscape:export-xdpi="49.080002"
     inkscape:export-filename="/Users/msh801/github/ComputerMuseum/images/dragonfly.png"
     d="m 51.243,87.761383 c -0.016,0.275 0.197,0.51 0.472,0.525 0.277,0.003 0.512,-0.198 0.525,-0.473 0.076,-1.438 0.414,-2.497 0.884,-2.762 0.059,-0.032 0.205,-0.105 0.483,-0.04 0.67,0.452 0.964,0.889 0.964,0.889 0,0 0.471,2.296 -2.298,3.947 -0.189,0.09 -2.279,0.674 -2.279,0.674 0,0 -2.089,-0.584 -2.278,-0.674 -2.769,-1.65 -2.298,-3.947 -2.298,-3.947 0,0 0.295,-0.438 0.969,-0.89 0.274,-0.063 0.421,0.009 0.478,0.041 0.47,0.265 0.809,1.323 0.885,2.762 0.014,0.274 0.249,0.478 0.525,0.473 0.275,-0.015 0.486,-0.25 0.472,-0.525 -0.062,-1.176 -0.312,-2.646 -1.099,-3.357 0.631,-0.217 1.396,-0.375 2.351,-0.375 0.953,0 1.715,0.158 2.343,0.374 -0.787,0.709 -1.037,2.18 -1.099,3.358 z"
     id="path17"
     inkscape:connector-curvature="0"
     style="fill:#000000" /></g>
<rect
   style="fill:none;stroke:none"
   id="rect3005"
   width="100.84746"
   height="113.13559"
   x="-0.42372882"
   y="-1.4210855e-14"
   ry="10.935705"
   inkscape:export-filename="/Users/msh801/github/ComputerMuseum/images/dragonfly.png"
   inkscape:export-xdpi="49.080002"
   inkscape:export-ydpi="49.080002" /></svg>